<svg width="120" height="120" viewBox="0 0 120 120" fill="none" xmlns="http://www.w3.org/2000/svg">
<path d="M0 0H120V120H0V0Z" fill="white"/>
<path d="M57.6984 93C53.3651 93 49.4318 91.9333 45.8984 89.8C42.3651 87.6 39.5651 84.6333 37.4984 80.9C35.4984 77.1667 34.4984 72.9667 34.4984 68.3C34.4984 63.6333 35.4984 59.4333 37.4984 55.7C39.5651 51.9667 42.3318 49 45.7984 46.8C49.3318 44.6 53.2984 43.5 57.6984 43.5C61.2984 43.5 64.4984 44.2667 67.2984 45.8C70.1651 47.2667 72.4651 49.3333 74.1984 52C75.9318 54.6 76.8984 57.6333 77.0984 61.1V75.4C76.8984 78.8 75.9318 81.8333 74.1984 84.5C72.5318 87.1667 70.2651 89.2667 67.3984 90.8C64.5984 92.2667 61.3651 93 57.6984 93ZM59.1984 84.5C63.6651 84.5 67.2651 83 69.9984 80C72.7318 76.9333 74.0984 73.0333 74.0984 68.3C74.0984 65.0333 73.4651 62.2 72.1984 59.8C70.9984 57.3333 69.2651 55.4333 66.9984 54.1C64.7318 52.7 62.0984 52 59.0984 52C56.0984 52 53.4318 52.7 51.0984 54.1C48.8318 55.5 47.0318 57.4333 45.6984 59.9C44.4318 62.3 43.7984 65.0667 43.7984 68.2C43.7984 71.4 44.4318 74.2333 45.6984 76.7C47.0318 79.1 48.8651 81 51.1984 82.4C53.5318 83.8 56.1984 84.5 59.1984 84.5ZM73.4984 92V79.2L75.1984 67.6L73.4984 56.1V44.5H82.5984V92H73.4984ZM42.2984 27.1H78.2984V34.5H42.2984V27.1Z" fill="#5F5F5F"/>
</svg>
